# xmcd
# Track frame offsets:
# 150
# 18152
# 32751
# 52717
# 66809
# 78062
# 92571
# 111020
# 122951
# 138780
# 154962
# 171317
# 184445
# 197267
#
# Disc length: 2881 seconds
# Revision: 1
# Processed by: cddbd v1.5.1PL0 Copyright (c) Steve Scherf et al.
# Submitted via: VisiTrax 2.9.9.209 - For more info visit www.synapsa.com
#
DISCID=ab0b3f0e
DTITLE=Various Artist - Mr. Music Country 09-04
DYEAR=2004
DGENRE=Country
TTITLE0=Aaron Russell - Jimmy's hands
TTITLE1=Kelly Weaver - Soul of Tennessee
TTITLE2=Shane Worley - Leave a message
TTITLE3=Lance Miller - Too much to dream
TTITLE4=Joe Diamond - I feel a memory coming on
TTITLE5=Jody Lynn Mitchell - My old love in New Mexio
TTITLE6=Rick Sharp - Country bumpkin
TTITLE7=Camilla Patulski - Wait a minute
TTITLE8=James Segrest - In memory of a memory
TTITLE9=Erin Hay - Take me home country roads
TTITLE10=Curtis Potter - Every time I hear the fiddle play
TTITLE11=Narvel Felts - Somebody hold me
TTITLE12=Jim James - Hold on to memories again
TTITLE13=Lonnie Spiker - The dove
EXTD=
EXTT0=
EXTT1=
EXTT2=
EXTT3=
EXTT4=
EXTT5=
EXTT6=
EXTT7=
EXTT8=
EXTT9=
EXTT10=
EXTT11=
EXTT12=
EXTT13=
PLAYORDER=
